<svg id="svg" version="1.1" xmlns="http://www.w3.org/2000/svg" xmlns:xlink="http://www.w3.org/1999/xlink" width="400" height="399.5031055900621" viewBox="0, 0, 400,399.5031055900621"><g id="svgg"><path id="path0" d="M181.618 0.409 C 174.160 1.040,168.432 1.706,168.232 1.965 C 168.122 2.107,165.694 2.552,162.837 2.954 C 159.980 3.356,157.552 3.818,157.443 3.982 C 157.333 4.146,155.459 4.579,153.279 4.944 C 151.099 5.310,149.121 5.765,148.884 5.957 C 148.646 6.149,147.013 6.621,145.255 7.006 C 143.497 7.391,141.968 7.829,141.858 7.980 C 141.748 8.130,140.310 8.576,138.661 8.970 C 137.013 9.364,135.574 9.811,135.465 9.963 C 135.355 10.115,134.186 10.553,132.867 10.936 C 131.548 11.319,129.700 11.982,128.761 12.409 C 127.821 12.837,126.868 13.187,126.643 13.187 C 126.419 13.187,125.480 13.561,124.556 14.019 C 123.633 14.476,122.023 15.113,120.979 15.433 C 119.935 15.753,119.081 16.155,119.081 16.326 C 119.081 16.497,118.092 16.949,116.883 17.330 C 115.674 17.711,114.685 18.158,114.685 18.323 C 114.685 18.488,113.786 18.947,112.687 19.342 C 111.588 19.737,110.689 20.187,110.689 20.341 C 110.689 20.495,109.790 20.945,108.691 21.340 C 107.592 21.735,106.693 22.191,106.693 22.354 C 106.693 22.516,105.955 22.893,105.052 23.191 C 104.150 23.489,103.326 23.954,103.223 24.225 C 103.119 24.496,102.149 25.036,101.067 25.425 C 99.986 25.814,99.101 26.274,99.101 26.447 C 99.101 26.621,98.472 27.025,97.702 27.347 C 96.933 27.668,96.304 28.084,96.304 28.271 C 96.304 28.458,95.656 28.845,94.865 29.131 C 94.073 29.417,93.117 29.948,92.741 30.310 C 92.364 30.673,91.438 31.315,90.683 31.738 C 89.928 32.161,89.221 32.631,89.111 32.781 C 89.001 32.932,88.327 33.355,87.612 33.721 C 86.898 34.087,86.312 34.516,86.309 34.676 C 86.307 34.835,85.587 35.309,84.711 35.729 C 83.834 36.149,83.117 36.638,83.117 36.817 C 83.117 36.996,82.568 37.426,81.897 37.773 C 81.226 38.120,80.339 38.709,79.927 39.082 C 79.514 39.455,78.670 40.152,78.050 40.631 C 75.230 42.809,73.262 44.417,72.513 45.154 C 72.066 45.594,71.559 45.954,71.386 45.954 C 71.214 45.954,70.321 46.658,69.403 47.518 C 68.484 48.378,66.574 50.131,65.159 51.414 C 61.292 54.920,54.104 62.142,50.949 65.692 C 49.411 67.423,47.657 69.337,47.053 69.945 C 46.449 70.553,45.954 71.196,45.954 71.375 C 45.954 71.554,45.594 72.066,45.154 72.513 C 44.417 73.262,42.809 75.230,40.631 78.050 C 40.152 78.670,39.455 79.514,39.082 79.927 C 38.709 80.339,38.120 81.226,37.773 81.897 C 37.426 82.568,37.008 83.117,36.844 83.117 C 36.680 83.117,36.192 83.791,35.759 84.615 C 35.327 85.440,34.746 86.258,34.469 86.433 C 34.193 86.609,33.966 86.969,33.966 87.233 C 33.965 87.496,33.521 88.228,32.979 88.859 C 32.436 89.490,31.763 90.524,31.483 91.157 C 31.203 91.790,30.839 92.308,30.674 92.308 C 30.509 92.308,29.979 93.162,29.496 94.206 C 29.013 95.250,28.396 96.240,28.125 96.407 C 27.854 96.573,27.425 97.337,27.172 98.105 C 26.919 98.873,26.560 99.500,26.376 99.500 C 26.191 99.500,25.736 100.298,25.363 101.273 C 24.991 102.248,24.472 103.128,24.209 103.229 C 23.947 103.329,23.489 104.150,23.191 105.052 C 22.893 105.955,22.516 106.693,22.354 106.693 C 22.191 106.693,21.735 107.592,21.340 108.691 C 20.945 109.790,20.495 110.689,20.341 110.689 C 20.187 110.689,19.737 111.588,19.342 112.687 C 18.947 113.786,18.488 114.685,18.323 114.685 C 18.158 114.685,17.711 115.674,17.330 116.883 C 16.949 118.092,16.510 119.081,16.354 119.081 C 16.198 119.081,15.950 119.575,15.802 120.180 C 15.654 120.784,15.018 122.375,14.389 123.714 C 13.761 125.054,13.123 126.807,12.972 127.611 C 12.822 128.414,12.545 129.071,12.359 129.071 C 12.172 129.071,11.829 129.835,11.597 130.769 C 11.365 131.703,10.831 133.367,10.410 134.466 C 9.989 135.564,9.330 137.632,8.947 139.061 C 8.564 140.490,8.131 141.748,7.985 141.858 C 7.840 141.968,7.389 143.676,6.984 145.654 C 6.579 147.632,6.125 149.341,5.977 149.451 C 5.828 149.560,5.375 151.449,4.971 153.646 C 4.566 155.844,4.104 157.735,3.944 157.848 C 3.784 157.961,3.340 160.299,2.956 163.043 C 2.573 165.787,2.135 168.122,1.983 168.232 C -0.315 169.895,-0.318 229.691,1.981 231.369 C 2.131 231.479,2.575 233.906,2.966 236.763 C 3.358 239.620,3.817 242.048,3.986 242.158 C 4.155 242.268,4.613 244.156,5.003 246.354 C 5.393 248.551,5.843 250.440,6.002 250.549 C 6.161 250.659,6.615 252.278,7.012 254.146 C 7.408 256.014,7.852 257.632,7.997 257.742 C 8.143 257.852,8.645 259.291,9.114 260.939 C 10.393 265.431,11.573 268.938,12.425 270.773 C 12.844 271.676,13.187 272.620,13.187 272.870 C 13.187 273.120,13.726 274.466,14.386 275.862 C 15.045 277.257,15.584 278.684,15.584 279.031 C 15.584 279.379,15.826 279.905,16.122 280.200 C 16.417 280.496,16.971 281.677,17.352 282.826 C 17.734 283.975,18.176 284.915,18.335 284.915 C 18.493 284.915,18.947 285.814,19.342 286.913 C 19.737 288.012,20.187 288.911,20.341 288.911 C 20.495 288.911,20.945 289.810,21.340 290.909 C 21.735 292.008,22.191 292.907,22.354 292.907 C 22.516 292.907,22.893 293.645,23.191 294.548 C 23.489 295.450,23.954 296.274,24.225 296.378 C 24.496 296.482,25.036 297.452,25.425 298.533 C 25.814 299.615,26.274 300.500,26.447 300.500 C 26.621 300.500,27.025 301.129,27.347 301.898 C 27.668 302.667,28.084 303.297,28.271 303.297 C 28.458 303.297,28.845 303.944,29.131 304.736 C 29.417 305.527,29.948 306.476,30.310 306.843 C 30.673 307.211,31.329 308.193,31.768 309.026 C 32.208 309.858,32.882 310.826,33.267 311.176 C 33.651 311.526,33.966 312.045,33.966 312.330 C 33.966 312.614,34.191 312.991,34.466 313.167 C 34.740 313.343,35.316 314.116,35.744 314.885 C 36.173 315.654,36.847 316.632,37.243 317.058 C 37.638 317.484,37.962 317.953,37.962 318.099 C 37.962 318.245,38.367 318.834,38.861 319.407 C 39.356 319.980,40.069 320.860,40.446 321.363 C 41.979 323.409,44.039 325.934,44.968 326.906 C 45.510 327.474,45.954 328.052,45.954 328.190 C 45.954 328.471,48.285 331.095,51.449 334.375 C 52.602 335.572,53.546 336.669,53.546 336.813 C 53.546 337.135,62.458 346.054,62.779 346.054 C 62.905 346.054,64.341 347.320,65.970 348.867 C 70.437 353.109,71.049 353.646,71.414 353.646 C 71.599 353.646,72.231 354.141,72.819 354.745 C 74.222 356.187,75.223 357.029,76.590 357.915 C 77.713 358.644,77.938 358.820,80.078 360.649 C 80.715 361.193,81.344 361.639,81.477 361.639 C 81.610 361.639,82.241 362.089,82.879 362.638 C 83.518 363.187,84.147 363.637,84.278 363.637 C 84.409 363.638,85.145 364.177,85.914 364.835 C 86.683 365.493,87.510 366.033,87.750 366.033 C 87.991 366.034,88.498 366.377,88.878 366.797 C 89.258 367.216,90.132 367.793,90.821 368.078 C 91.510 368.364,92.378 368.901,92.750 369.273 C 93.121 369.645,94.073 370.183,94.865 370.469 C 95.656 370.756,96.304 371.143,96.304 371.329 C 96.304 371.516,96.933 371.932,97.702 372.254 C 98.472 372.575,99.101 372.987,99.101 373.168 C 99.101 373.350,99.839 373.742,100.742 374.040 C 101.644 374.338,102.468 374.803,102.572 375.074 C 102.676 375.345,103.646 375.885,104.727 376.274 C 105.808 376.663,106.693 377.107,106.693 377.262 C 106.693 377.416,107.592 377.865,108.691 378.261 C 109.790 378.656,110.689 379.099,110.689 379.245 C 110.689 379.392,111.543 379.838,112.587 380.237 C 113.631 380.635,114.700 381.176,114.963 381.439 C 115.225 381.702,116.259 382.159,117.261 382.454 C 118.262 382.750,119.081 383.125,119.081 383.289 C 119.081 383.452,119.935 383.848,120.979 384.169 C 122.023 384.490,123.589 385.127,124.460 385.583 C 125.331 386.040,126.325 386.414,126.669 386.414 C 127.013 386.414,127.649 386.658,128.083 386.956 C 128.516 387.254,130.220 387.907,131.868 388.407 C 133.516 388.907,135.045 389.450,135.265 389.614 C 135.485 389.778,137.013 390.247,138.661 390.657 C 140.310 391.067,141.748 391.510,141.858 391.642 C 141.968 391.774,143.497 392.209,145.255 392.609 C 147.013 393.008,148.631 393.467,148.851 393.627 C 149.349 393.990,155.201 395.205,156.453 395.205 C 156.961 395.205,157.436 395.371,157.509 395.575 C 157.582 395.779,159.890 396.266,162.637 396.659 C 165.385 397.051,167.722 397.492,167.832 397.639 C 168.865 399.015,204.439 400.170,217.047 399.237 C 225.160 398.637,231.521 397.942,231.768 397.629 C 231.878 397.490,234.306 397.048,237.163 396.646 C 240.020 396.245,242.448 395.779,242.557 395.612 C 242.667 395.444,244.510 394.993,246.653 394.609 C 248.796 394.226,250.549 393.788,250.549 393.638 C 250.549 393.487,252.258 393.028,254.346 392.618 C 256.434 392.207,258.142 391.757,258.142 391.617 C 258.142 391.477,259.446 391.032,261.039 390.627 C 262.632 390.223,264.120 389.751,264.345 389.578 C 264.569 389.405,266.086 388.895,267.714 388.443 C 269.343 387.992,270.778 387.477,270.902 387.299 C 271.027 387.120,272.253 386.640,273.626 386.231 C 275.000 385.822,276.124 385.356,276.124 385.195 C 276.124 385.034,276.580 384.787,277.138 384.647 C 277.695 384.507,279.268 383.883,280.634 383.260 C 282.000 382.637,283.521 382.001,284.016 381.846 C 284.510 381.691,284.915 381.436,284.915 381.279 C 284.915 381.122,285.734 380.752,286.735 380.456 C 287.737 380.161,288.771 379.704,289.033 379.441 C 289.296 379.178,290.365 378.637,291.409 378.239 C 292.453 377.840,293.307 377.386,293.307 377.229 C 293.307 377.073,294.071 376.608,295.005 376.196 C 295.939 375.784,296.793 375.333,296.903 375.195 C 297.013 375.057,297.822 374.608,298.701 374.198 C 299.580 373.788,300.648 373.132,301.074 372.740 C 301.500 372.349,302.072 372.028,302.345 372.028 C 302.617 372.028,303.086 371.782,303.388 371.480 C 303.689 371.179,304.491 370.646,305.169 370.295 C 306.843 369.429,312.935 365.406,313.720 364.647 C 314.068 364.311,314.524 364.036,314.734 364.036 C 314.944 364.036,315.738 363.504,316.499 362.853 C 317.260 362.203,318.101 361.664,318.368 361.655 C 318.635 361.646,319.045 361.279,319.281 360.839 C 319.516 360.400,319.970 360.040,320.290 360.040 C 320.610 360.040,321.097 359.680,321.371 359.241 C 321.646 358.801,322.084 358.442,322.345 358.442 C 322.606 358.442,323.173 357.992,323.605 357.443 C 324.037 356.893,324.545 356.441,324.733 356.437 C 324.921 356.434,325.704 355.892,326.474 355.234 C 327.243 354.576,328.464 353.545,329.187 352.943 C 329.910 352.341,331.401 350.994,332.500 349.950 C 333.598 348.906,334.625 348.047,334.781 348.042 C 335.164 348.028,348.052 335.058,348.052 334.687 C 348.052 334.525,348.951 333.527,350.050 332.468 C 351.149 331.408,352.048 330.378,352.048 330.178 C 352.048 329.978,352.453 329.440,352.947 328.983 C 354.104 327.914,355.570 326.167,356.386 324.886 C 356.740 324.330,357.347 323.641,357.735 323.354 C 358.124 323.067,358.442 322.579,358.442 322.269 C 358.442 321.960,358.801 321.514,359.241 321.279 C 359.680 321.043,360.040 320.663,360.040 320.433 C 360.040 320.203,360.669 319.247,361.439 318.308 C 362.208 317.369,362.837 316.395,362.837 316.143 C 362.837 315.891,363.012 315.684,363.227 315.684 C 363.441 315.684,363.900 315.135,364.247 314.464 C 364.594 313.793,365.223 312.899,365.645 312.476 C 366.068 312.054,366.527 311.255,366.667 310.699 C 366.806 310.144,367.083 309.690,367.283 309.690 C 367.482 309.690,367.945 309.061,368.312 308.292 C 368.679 307.522,369.110 306.893,369.269 306.893 C 369.429 306.893,369.969 306.039,370.471 304.995 C 370.972 303.951,371.590 302.917,371.843 302.697 C 372.097 302.478,372.546 301.668,372.842 300.899 C 373.138 300.130,373.601 299.364,373.873 299.198 C 374.144 299.031,374.573 298.267,374.826 297.499 C 375.080 296.732,375.416 296.104,375.573 296.104 C 375.731 296.104,376.194 295.295,376.602 294.306 C 377.010 293.317,377.460 292.507,377.604 292.507 C 377.747 292.507,378.187 291.608,378.583 290.509 C 378.978 289.411,379.434 288.511,379.596 288.511 C 379.758 288.511,380.226 287.522,380.637 286.314 C 381.048 285.105,381.527 284.116,381.701 284.116 C 381.875 284.116,382.018 283.928,382.018 283.698 C 382.018 283.468,382.624 281.984,383.364 280.401 C 384.105 278.818,384.838 276.938,384.994 276.224 C 385.151 275.509,385.437 274.925,385.631 274.925 C 385.825 274.925,386.176 274.161,386.411 273.227 C 386.647 272.293,387.178 270.809,387.593 269.930 C 388.007 269.051,388.551 267.522,388.802 266.533 C 389.053 265.544,389.504 264.196,389.804 263.536 C 390.105 262.877,390.664 261.079,391.045 259.540 C 391.427 258.002,391.855 256.653,391.996 256.543 C 392.284 256.319,393.606 250.967,393.606 250.026 C 393.606 249.691,393.770 249.357,393.970 249.284 C 394.170 249.211,394.660 247.173,395.059 244.755 C 395.458 242.338,395.901 240.270,396.044 240.160 C 396.329 239.940,397.602 231.636,397.602 229.997 C 397.602 229.433,397.755 228.971,397.941 228.971 C 399.055 228.971,400.205 202.859,399.644 190.310 C 399.141 179.060,398.412 170.629,397.941 170.629 C 397.755 170.629,397.602 170.168,397.602 169.603 C 397.602 167.964,396.329 159.660,396.044 159.441 C 395.901 159.331,395.457 157.263,395.056 154.845 C 394.655 152.428,394.200 150.360,394.045 150.250 C 393.734 150.030,392.408 144.724,392.408 143.699 C 392.408 143.346,392.261 143.057,392.081 143.057 C 391.901 143.057,391.445 141.745,391.067 140.142 C 390.690 138.539,390.152 136.786,389.874 136.246 C 389.595 135.706,389.043 134.105,388.647 132.687 C 388.250 131.270,387.700 129.741,387.423 129.291 C 387.147 128.840,386.694 127.617,386.416 126.573 C 386.138 125.529,385.768 124.675,385.594 124.675 C 385.420 124.675,385.151 124.091,384.994 123.377 C 384.838 122.662,384.105 120.783,383.364 119.199 C 382.624 117.616,382.018 116.133,382.018 115.903 C 382.018 115.673,381.875 115.485,381.701 115.485 C 381.527 115.485,381.048 114.496,380.637 113.287 C 380.226 112.078,379.758 111.089,379.596 111.089 C 379.434 111.089,378.978 110.190,378.583 109.091 C 378.187 107.992,377.747 107.093,377.604 107.093 C 377.461 107.093,377.005 106.329,376.591 105.395 C 376.177 104.461,375.610 103.459,375.332 103.168 C 375.053 102.878,374.825 102.383,374.825 102.069 C 374.825 101.755,374.503 101.176,374.109 100.782 C 373.715 100.388,373.147 99.474,372.847 98.750 C 372.548 98.026,372.096 97.225,371.845 96.969 C 371.593 96.713,370.976 95.649,370.473 94.605 C 369.970 93.561,369.417 92.707,369.244 92.707 C 369.070 92.707,368.703 92.164,368.428 91.499 C 368.152 90.834,367.716 90.160,367.459 90.001 C 367.201 89.841,366.676 89.036,366.293 88.212 C 365.910 87.388,365.454 86.713,365.280 86.713 C 365.106 86.713,364.738 86.219,364.463 85.614 C 364.188 85.010,363.711 84.246,363.402 83.916 C 362.333 82.776,360.040 79.512,360.040 79.131 C 360.040 78.921,359.680 78.557,359.241 78.322 C 358.801 78.086,358.442 77.663,358.442 77.381 C 358.442 77.098,358.037 76.489,357.542 76.027 C 357.048 75.565,356.014 74.341,355.245 73.306 C 354.476 72.272,353.352 70.969,352.747 70.412 C 352.143 69.854,351.648 69.256,351.648 69.082 C 351.648 68.495,335.648 51.948,335.080 51.948 C 334.922 51.948,333.926 51.049,332.867 49.950 C 331.808 48.851,330.785 47.952,330.595 47.952 C 330.404 47.952,329.798 47.458,329.248 46.853 C 328.172 45.672,325.442 43.461,324.727 43.192 C 324.486 43.102,323.959 42.608,323.554 42.094 C 323.150 41.579,322.582 41.159,322.291 41.159 C 322.001 41.159,321.659 40.886,321.532 40.553 C 321.404 40.220,320.845 39.775,320.290 39.564 C 319.735 39.353,319.281 39.005,319.281 38.790 C 319.281 38.575,318.606 38.084,317.782 37.698 C 316.958 37.312,316.101 36.757,315.877 36.464 C 315.654 36.171,315.086 35.713,314.616 35.448 C 314.146 35.182,312.105 33.835,310.080 32.453 C 308.055 31.071,305.844 29.655,305.167 29.304 C 304.489 28.954,303.689 28.421,303.388 28.120 C 303.086 27.819,302.617 27.572,302.345 27.572 C 302.072 27.572,301.500 27.255,301.074 26.868 C 300.648 26.480,299.535 25.824,298.601 25.409 C 297.667 24.993,296.903 24.541,296.903 24.403 C 296.903 24.265,296.004 23.803,294.905 23.377 C 293.806 22.950,292.907 22.479,292.907 22.329 C 292.907 22.180,292.099 21.725,291.110 21.318 C 290.122 20.912,289.313 20.459,289.312 20.312 C 289.311 20.165,288.371 19.732,287.222 19.350 C 286.073 18.969,284.891 18.415,284.596 18.120 C 284.301 17.824,283.896 17.582,283.698 17.582 C 283.499 17.582,282.170 17.048,280.744 16.395 C 279.318 15.742,277.695 15.093,277.138 14.953 C 276.580 14.813,276.124 14.567,276.124 14.406 C 276.124 14.244,275.000 13.780,273.626 13.373 C 272.253 12.965,270.769 12.414,270.330 12.147 C 269.890 11.879,268.362 11.343,266.933 10.954 C 265.504 10.566,264.246 10.130,264.136 9.986 C 264.026 9.842,262.587 9.384,260.939 8.969 C 259.291 8.555,257.852 8.093,257.742 7.944 C 257.632 7.795,256.014 7.350,254.146 6.955 C 252.278 6.561,250.659 6.118,250.549 5.972 C 250.440 5.826,248.551 5.375,246.354 4.971 C 244.156 4.566,242.268 4.123,242.158 3.985 C 241.924 3.692,234.279 2.398,232.785 2.398 C 232.226 2.398,231.768 2.247,231.768 2.063 C 231.768 0.725,193.000 -0.553,181.618 0.409 M174.226 100.249 C 174.226 100.806,172.648 104.219,172.323 104.364 C 172.161 104.436,171.703 105.125,171.305 105.894 C 170.907 106.663,170.065 108.192,169.432 109.291 C 167.262 113.059,166.258 114.887,165.443 116.552 C 164.993 117.468,164.493 118.277,164.331 118.350 C 164.169 118.422,163.711 119.111,163.313 119.880 C 162.915 120.649,162.073 122.178,161.440 123.277 C 159.925 125.908,158.657 128.167,157.489 130.316 C 156.965 131.279,156.412 132.158,156.261 132.268 C 156.109 132.378,155.639 133.321,155.215 134.364 C 154.792 135.407,154.319 136.261,154.165 136.262 C 154.010 136.263,153.508 137.028,153.049 137.962 C 152.591 138.896,151.690 140.559,151.049 141.658 C 150.407 142.757,149.505 144.376,149.044 145.255 C 148.583 146.134,147.831 147.453,147.372 148.187 C 146.442 149.676,146.351 149.358,149.049 154.046 C 149.682 155.145,150.669 156.943,151.244 158.042 C 153.031 161.461,153.791 162.823,154.145 163.237 C 154.452 163.596,156.253 166.816,158.950 171.828 C 159.482 172.817,160.057 173.806,160.228 174.026 C 160.400 174.246,161.217 175.684,162.045 177.223 C 162.872 178.761,163.772 180.290,164.043 180.619 C 164.315 180.949,164.926 182.028,165.402 183.017 C 165.877 184.006,166.787 185.714,167.424 186.813 C 168.060 187.912,169.049 189.710,169.622 190.809 C 170.194 191.908,171.149 193.643,171.745 194.665 C 172.340 195.687,173.235 197.260,173.734 198.162 L 174.642 199.800 186.622 199.800 C 194.797 199.800,198.601 199.666,198.601 199.376 C 198.601 198.941,195.372 192.167,194.994 191.808 C 194.878 191.698,194.433 190.799,194.006 189.810 C 193.579 188.821,193.129 187.922,193.007 187.812 C 192.885 187.702,192.435 186.803,192.008 185.814 C 191.581 184.825,191.122 183.926,190.990 183.816 C 190.857 183.706,190.324 182.582,189.806 181.319 C 189.288 180.055,188.717 179.021,188.538 179.021 C 188.359 179.021,188.212 178.810,188.212 178.551 C 188.212 178.091,183.022 167.427,182.606 167.033 C 182.490 166.923,182.046 166.024,181.618 165.035 C 181.191 164.046,180.743 163.147,180.622 163.037 C 180.345 162.784,179.421 160.695,179.421 160.321 C 179.421 160.166,204.414 160.040,234.962 160.040 L 290.504 160.040 291.715 162.438 C 292.381 163.756,293.809 166.454,294.889 168.432 C 295.969 170.410,297.368 173.017,297.999 174.226 C 298.631 175.435,299.568 177.205,300.084 178.161 C 300.691 179.287,300.872 179.990,300.598 180.159 C 300.366 180.302,281.278 180.404,258.180 180.384 C 235.082 180.365,216.184 180.484,216.184 180.650 C 216.184 180.815,218.162 184.905,220.579 189.739 C 222.997 194.572,224.975 198.704,224.975 198.921 C 224.975 199.707,226.448 199.800,238.894 199.805 L 251.548 199.810 252.448 201.198 C 252.942 201.962,253.347 202.756,253.347 202.963 C 253.347 203.170,253.593 203.586,253.894 203.887 C 254.195 204.188,254.780 205.028,255.193 205.752 C 255.606 206.477,256.428 207.907,257.019 208.929 C 257.610 209.952,258.500 211.553,258.997 212.488 C 259.493 213.422,260.044 214.186,260.219 214.186 C 260.395 214.186,260.539 214.385,260.539 214.627 C 260.539 214.870,261.082 215.874,261.746 216.857 C 262.410 217.840,263.229 219.215,263.566 219.912 C 264.427 221.693,265.372 223.341,266.853 225.650 C 267.557 226.746,268.132 227.851,268.132 228.107 C 268.132 228.362,268.276 228.571,268.452 228.571 C 268.628 228.571,269.166 229.336,269.649 230.270 C 270.559 232.033,270.671 232.223,272.822 235.632 C 273.539 236.768,274.126 237.892,274.126 238.130 C 274.126 238.367,274.306 238.561,274.525 238.561 C 274.745 238.561,274.925 238.715,274.925 238.902 C 274.925 239.090,275.824 240.753,276.923 242.599 C 278.023 244.444,279.194 246.538,279.526 247.253 C 279.859 247.967,280.287 248.551,280.478 248.551 C 281.385 248.551,281.191 250.345,280.093 252.131 C 279.448 253.178,278.921 254.239,278.921 254.490 C 278.921 254.740,278.744 254.945,278.527 254.945 C 278.310 254.945,277.858 255.529,277.523 256.244 C 277.188 256.958,276.194 258.711,275.316 260.140 C 274.437 261.568,273.499 263.187,273.231 263.736 C 272.963 264.286,272.516 264.879,272.236 265.055 C 271.957 265.231,271.728 265.581,271.728 265.833 C 271.728 266.085,271.307 266.930,270.792 267.711 C 270.003 268.906,267.992 272.198,266.018 275.524 C 265.757 275.964,264.957 277.253,264.240 278.389 C 263.524 279.526,262.936 280.604,262.935 280.787 C 262.933 280.970,262.125 282.288,261.139 283.716 C 260.153 285.145,259.344 286.461,259.343 286.641 C 259.342 286.821,258.801 287.753,258.142 288.711 C 257.483 289.670,256.942 290.601,256.941 290.781 C 256.939 290.961,256.131 292.278,255.145 293.706 C 254.159 295.135,253.350 296.441,253.349 296.609 C 253.348 296.777,252.942 297.539,252.448 298.302 L 251.548 299.690 238.262 299.695 C 230.954 299.698,224.975 299.556,224.975 299.381 C 224.975 299.205,225.194 298.842,225.461 298.575 C 225.914 298.122,226.306 297.432,228.372 293.449 C 228.811 292.602,229.261 291.818,229.371 291.708 C 229.481 291.598,229.957 290.789,230.430 289.910 C 231.372 288.158,231.703 287.562,236.017 279.858 C 237.636 276.966,238.961 274.404,238.961 274.163 C 238.961 273.923,239.132 273.726,239.342 273.726 C 239.551 273.726,240.098 272.962,240.557 272.028 C 241.016 271.094,242.001 269.251,242.745 267.932 C 243.490 266.613,244.484 264.815,244.955 263.936 C 245.426 263.057,246.418 261.259,247.158 259.940 C 247.899 258.621,248.737 257.093,249.020 256.543 C 249.303 255.994,249.642 255.455,249.773 255.345 C 249.905 255.235,250.340 254.515,250.740 253.746 C 251.140 252.977,251.824 251.663,252.261 250.826 C 253.137 249.144,253.227 249.475,250.730 245.155 C 249.968 243.836,249.127 242.263,248.860 241.658 C 248.594 241.054,248.225 240.559,248.041 240.559 C 247.856 240.559,247.809 240.392,247.935 240.187 C 248.061 239.983,247.980 239.701,247.753 239.561 C 247.527 239.421,246.960 238.554,246.494 237.635 C 246.028 236.716,245.536 235.874,245.401 235.764 C 245.266 235.654,244.836 234.935,244.447 234.166 C 244.057 233.397,243.214 231.868,242.573 230.769 C 241.932 229.670,241.024 228.052,240.554 227.173 C 238.440 223.212,237.753 222.017,237.468 221.805 C 237.300 221.681,236.844 220.949,236.455 220.180 C 236.065 219.411,235.228 217.882,234.595 216.783 C 233.962 215.684,233.006 213.976,232.471 212.987 C 230.493 209.331,229.432 207.474,228.339 205.757 C 227.723 204.788,226.804 203.142,226.296 202.098 L 225.373 200.200 213.186 200.200 C 206.483 200.200,201.001 200.335,201.003 200.500 C 201.006 200.664,205.311 209.419,210.571 219.955 C 215.831 230.490,220.071 239.214,219.992 239.340 C 219.676 239.852,116.879 239.533,116.989 239.021 C 117.047 238.750,117.535 237.829,118.075 236.974 C 118.945 235.596,120.397 232.921,124.373 225.375 C 125.010 224.166,126.013 222.286,126.602 221.197 L 127.672 219.217 155.311 219.199 C 170.513 219.189,183.048 219.084,183.166 218.965 C 183.285 218.846,181.302 214.575,178.760 209.474 L 174.138 200.200 161.295 200.198 L 148.452 200.196 146.753 197.667 C 145.819 196.276,145.055 195.011,145.055 194.856 C 145.055 194.701,144.426 193.639,143.656 192.497 C 142.887 191.355,142.258 190.281,142.258 190.111 C 142.258 189.941,141.620 188.895,140.841 187.786 C 140.062 186.678,139.264 185.376,139.068 184.893 C 138.871 184.411,138.161 183.207,137.489 182.218 C 136.817 181.229,136.266 180.204,136.265 179.940 C 136.265 179.676,136.039 179.316,135.764 179.141 C 135.490 178.965,134.958 178.282,134.584 177.622 C 134.209 176.963,133.310 175.373,132.586 174.089 C 130.468 170.337,130.134 169.777,128.258 166.833 C 126.235 163.661,125.390 162.203,124.492 160.340 C 124.147 159.625,123.688 159.041,123.471 159.041 C 123.254 159.041,123.077 158.814,123.077 158.536 C 123.077 158.258,122.448 157.097,121.678 155.954 C 120.909 154.812,120.280 153.726,120.280 153.540 C 120.280 153.354,119.842 152.609,119.307 151.883 C 118.152 150.319,118.274 149.822,120.653 146.395 C 121.546 145.108,122.277 143.904,122.277 143.718 C 122.277 143.532,122.621 142.898,123.041 142.308 C 123.461 141.718,124.242 140.432,124.777 139.449 C 125.312 138.466,126.092 137.033,126.511 136.264 C 126.930 135.495,127.412 134.804,127.582 134.729 C 127.753 134.654,128.157 134.024,128.481 133.330 C 128.805 132.636,129.969 130.558,131.069 128.712 C 132.168 126.867,133.067 125.204,133.067 125.016 C 133.067 124.829,133.247 124.675,133.467 124.675 C 133.686 124.675,133.866 124.481,133.866 124.244 C 133.866 124.006,134.496 122.864,135.265 121.705 C 136.034 120.546,136.663 119.451,136.663 119.271 C 136.663 119.091,136.906 118.660,137.203 118.313 C 137.500 117.966,138.175 116.873,138.702 115.884 C 139.229 114.895,139.752 113.996,139.864 113.886 C 139.976 113.776,140.426 112.967,140.863 112.088 C 141.300 111.209,141.802 110.384,141.977 110.255 C 142.334 109.991,143.403 108.131,144.654 105.594 C 145.115 104.660,145.663 103.896,145.873 103.896 C 146.082 103.896,146.254 103.668,146.254 103.389 C 146.254 103.111,146.710 102.212,147.267 101.391 L 148.281 99.900 161.253 99.900 C 168.388 99.900,174.226 100.057,174.226 100.249 M225.450 100.109 C 225.565 100.223,223.527 104.565,220.921 109.756 C 218.316 114.947,216.184 119.349,216.184 119.537 C 216.184 119.726,228.705 119.880,244.009 119.880 C 275.259 119.880,272.473 119.608,273.759 122.787 C 274.046 123.496,274.395 124.166,274.534 124.276 C 274.674 124.386,275.068 125.015,275.410 125.674 C 275.752 126.334,276.702 128.132,277.521 129.670 C 280.071 134.461,282.516 139.252,282.517 139.461 C 282.517 139.624,190.265 139.667,181.955 139.508 L 179.494 139.461 189.148 120.180 C 194.457 109.575,198.947 100.674,199.124 100.400 C 199.449 99.898,224.957 99.616,225.450 100.109 M219.980 260.340 C 219.980 260.559,215.603 269.505,210.253 280.220 L 200.526 299.700 187.203 299.700 L 173.880 299.700 178.848 289.833 C 181.580 284.406,183.816 279.911,183.816 279.843 C 183.816 279.776,164.650 279.720,141.225 279.720 C 117.801 279.720,98.704 279.585,98.788 279.421 C 98.873 279.256,99.363 278.222,99.877 277.123 C 100.392 276.024,100.946 275.035,101.110 274.925 C 101.552 274.628,104.693 268.411,104.694 267.832 C 104.695 267.557,104.849 267.333,105.037 267.333 C 105.225 267.333,106.160 265.785,107.114 263.894 C 108.069 262.003,109.163 260.339,109.546 260.198 C 110.747 259.753,219.980 259.894,219.980 260.340 " stroke="none" fill="#e4945c" fill-rule="evenodd"></path><path id="path1" d="M147.267 101.391 C 146.710 102.212,146.254 103.111,146.254 103.389 C 146.254 103.668,146.082 103.896,145.873 103.896 C 145.663 103.896,145.115 104.660,144.654 105.594 C 143.403 108.131,142.334 109.991,141.977 110.255 C 141.802 110.384,141.300 111.209,140.863 112.088 C 140.426 112.967,139.976 113.776,139.864 113.886 C 139.752 113.996,139.229 114.895,138.702 115.884 C 138.175 116.873,137.500 117.966,137.203 118.313 C 136.906 118.660,136.663 119.091,136.663 119.271 C 136.663 119.451,136.034 120.546,135.265 121.705 C 134.496 122.864,133.866 124.006,133.866 124.244 C 133.866 124.481,133.686 124.675,133.467 124.675 C 133.247 124.675,133.067 124.829,133.067 125.016 C 133.067 125.204,132.168 126.867,131.069 128.712 C 129.969 130.558,128.805 132.636,128.481 133.330 C 128.157 134.024,127.753 134.654,127.582 134.729 C 127.412 134.804,126.930 135.495,126.511 136.264 C 126.092 137.033,125.312 138.466,124.777 139.449 C 124.242 140.432,123.461 141.718,123.041 142.308 C 122.621 142.898,122.277 143.532,122.277 143.718 C 122.277 143.904,121.546 145.108,120.653 146.395 C 118.274 149.822,118.152 150.319,119.307 151.883 C 119.842 152.609,120.280 153.354,120.280 153.540 C 120.280 153.726,120.909 154.812,121.678 155.954 C 122.448 157.097,123.077 158.258,123.077 158.536 C 123.077 158.814,123.254 159.041,123.471 159.041 C 123.688 159.041,124.147 159.625,124.492 160.340 C 125.390 162.203,126.235 163.661,128.258 166.833 C 130.134 169.777,130.468 170.337,132.586 174.089 C 133.310 175.373,134.209 176.963,134.584 177.622 C 134.958 178.282,135.490 178.965,135.764 179.141 C 136.039 179.316,136.265 179.676,136.265 179.940 C 136.266 180.204,136.817 181.229,137.489 182.218 C 138.161 183.207,138.871 184.411,139.068 184.893 C 139.264 185.376,140.062 186.678,140.841 187.786 C 141.620 188.895,142.258 189.941,142.258 190.111 C 142.258 190.281,142.887 191.355,143.656 192.497 C 144.426 193.639,145.055 194.701,145.055 194.856 C 145.055 195.011,145.819 196.276,146.753 197.667 L 148.452 200.196 161.295 200.198 L 174.138 200.200 178.760 209.474 C 181.302 214.575,183.285 218.846,183.166 218.965 C 183.048 219.084,170.513 219.189,155.311 219.199 L 127.672 219.217 126.602 221.197 C 126.013 222.286,125.010 224.166,124.373 225.375 C 120.397 232.921,118.945 235.596,118.075 236.974 C 117.535 237.829,117.047 238.750,116.989 239.021 C 116.879 239.533,219.676 239.852,219.992 239.340 C 220.071 239.214,215.831 230.490,210.571 219.955 C 205.311 209.419,201.006 200.664,201.003 200.500 C 201.001 200.335,206.483 200.200,213.186 200.200 L 225.373 200.200 226.296 202.098 C 226.804 203.142,227.723 204.788,228.339 205.757 C 229.432 207.474,230.493 209.331,232.471 212.987 C 233.006 213.976,233.962 215.684,234.595 216.783 C 235.228 217.882,236.065 219.411,236.455 220.180 C 236.844 220.949,237.300 221.681,237.468 221.805 C 237.753 222.017,238.440 223.212,240.554 227.173 C 241.024 228.052,241.932 229.670,242.573 230.769 C 243.214 231.868,244.057 233.397,244.447 234.166 C 244.836 234.935,245.266 235.654,245.401 235.764 C 245.536 235.874,246.028 236.716,246.494 237.635 C 246.960 238.554,247.527 239.421,247.753 239.561 C 247.980 239.701,248.061 239.983,247.935 240.187 C 247.809 240.392,247.856 240.559,248.041 240.559 C 248.225 240.559,248.594 241.054,248.860 241.658 C 249.127 242.263,249.968 243.836,250.730 245.155 C 253.227 249.475,253.137 249.144,252.261 250.826 C 251.824 251.663,251.140 252.977,250.740 253.746 C 250.340 254.515,249.905 255.235,249.773 255.345 C 249.642 255.455,249.303 255.994,249.020 256.543 C 248.737 257.093,247.899 258.621,247.158 259.940 C 246.418 261.259,245.426 263.057,244.955 263.936 C 244.484 264.815,243.490 266.613,242.745 267.932 C 242.001 269.251,241.016 271.094,240.557 272.028 C 240.098 272.962,239.551 273.726,239.342 273.726 C 239.132 273.726,238.961 273.923,238.961 274.163 C 238.961 274.404,237.636 276.966,236.017 279.858 C 231.703 287.562,231.372 288.158,230.430 289.910 C 229.957 290.789,229.481 291.598,229.371 291.708 C 229.261 291.818,228.811 292.602,228.372 293.449 C 226.306 297.432,225.914 298.122,225.461 298.575 C 225.194 298.842,224.975 299.205,224.975 299.381 C 224.975 299.556,230.954 299.698,238.262 299.695 L 251.548 299.690 252.448 298.302 C 252.942 297.539,253.348 296.777,253.349 296.609 C 253.350 296.441,254.159 295.135,255.145 293.706 C 256.131 292.278,256.939 290.961,256.941 290.781 C 256.942 290.601,257.483 289.670,258.142 288.711 C 258.801 287.753,259.342 286.821,259.343 286.641 C 259.344 286.461,260.153 285.145,261.139 283.716 C 262.125 282.288,262.933 280.970,262.935 280.787 C 262.936 280.604,263.524 279.526,264.240 278.389 C 264.957 277.253,265.757 275.964,266.018 275.524 C 267.992 272.198,270.003 268.906,270.792 267.711 C 271.307 266.930,271.728 266.085,271.728 265.833 C 271.728 265.581,271.957 265.231,272.236 265.055 C 272.516 264.879,272.963 264.286,273.231 263.736 C 273.499 263.187,274.437 261.568,275.316 260.140 C 276.194 258.711,277.188 256.958,277.523 256.244 C 277.858 255.529,278.310 254.945,278.527 254.945 C 278.744 254.945,278.921 254.740,278.921 254.490 C 278.921 254.239,279.448 253.178,280.093 252.131 C 281.191 250.345,281.385 248.551,280.478 248.551 C 280.287 248.551,279.859 247.967,279.526 247.253 C 279.194 246.538,278.023 244.444,276.923 242.599 C 275.824 240.753,274.925 239.090,274.925 238.902 C 274.925 238.715,274.745 238.561,274.525 238.561 C 274.306 238.561,274.126 238.367,274.126 238.130 C 274.126 237.892,273.539 236.768,272.822 235.632 C 270.671 232.223,270.559 232.033,269.649 230.270 C 269.166 229.336,268.628 228.571,268.452 228.571 C 268.276 228.571,268.132 228.362,268.132 228.107 C 268.132 227.851,267.557 226.746,266.853 225.650 C 265.372 223.341,264.427 221.693,263.566 219.912 C 263.229 219.215,262.410 217.840,261.746 216.857 C 261.082 215.874,260.539 214.870,260.539 214.627 C 260.539 214.385,260.395 214.186,260.219 214.186 C 260.044 214.186,259.493 213.422,258.997 212.488 C 258.500 211.553,257.610 209.952,257.019 208.929 C 256.428 207.907,255.606 206.477,255.193 205.752 C 254.780 205.028,254.195 204.188,253.894 203.887 C 253.593 203.586,253.347 203.170,253.347 202.963 C 253.347 202.756,252.942 201.962,252.448 201.198 L 251.548 199.810 238.894 199.805 C 226.448 199.800,224.975 199.707,224.975 198.921 C 224.975 198.704,222.997 194.572,220.579 189.739 C 218.162 184.905,216.184 180.815,216.184 180.650 C 216.184 180.484,235.082 180.365,258.180 180.384 C 281.278 180.404,300.366 180.302,300.598 180.159 C 300.872 179.990,300.691 179.287,300.084 178.161 C 299.568 177.205,298.631 175.435,297.999 174.226 C 297.368 173.017,295.969 170.410,294.889 168.432 C 293.809 166.454,292.381 163.756,291.715 162.438 L 290.504 160.040 234.962 160.040 C 204.414 160.040,179.421 160.166,179.421 160.321 C 179.421 160.695,180.345 162.784,180.622 163.037 C 180.743 163.147,181.191 164.046,181.618 165.035 C 182.046 166.024,182.490 166.923,182.606 167.033 C 183.022 167.427,188.212 178.091,188.212 178.551 C 188.212 178.810,188.359 179.021,188.538 179.021 C 188.717 179.021,189.288 180.055,189.806 181.319 C 190.324 182.582,190.857 183.706,190.990 183.816 C 191.122 183.926,191.581 184.825,192.008 185.814 C 192.435 186.803,192.885 187.702,193.007 187.812 C 193.129 187.922,193.579 188.821,194.006 189.810 C 194.433 190.799,194.878 191.698,194.994 191.808 C 195.372 192.167,198.601 198.941,198.601 199.376 C 198.601 199.666,194.797 199.800,186.622 199.800 L 174.642 199.800 173.734 198.162 C 173.235 197.260,172.340 195.687,171.745 194.665 C 171.149 193.643,170.194 191.908,169.622 190.809 C 169.049 189.710,168.060 187.912,167.424 186.813 C 166.787 185.714,165.877 184.006,165.402 183.017 C 164.926 182.028,164.315 180.949,164.043 180.619 C 163.772 180.290,162.872 178.761,162.045 177.223 C 161.217 175.684,160.400 174.246,160.228 174.026 C 160.057 173.806,159.482 172.817,158.950 171.828 C 156.253 166.816,154.452 163.596,154.145 163.237 C 153.791 162.823,153.031 161.461,151.244 158.042 C 150.669 156.943,149.682 155.145,149.049 154.046 C 146.351 149.358,146.442 149.676,147.372 148.187 C 147.831 147.453,148.583 146.134,149.044 145.255 C 149.505 144.376,150.407 142.757,151.049 141.658 C 151.690 140.559,152.591 138.896,153.049 137.962 C 153.508 137.028,154.010 136.263,154.165 136.262 C 154.319 136.261,154.792 135.407,155.215 134.364 C 155.639 133.321,156.109 132.378,156.261 132.268 C 156.412 132.158,156.965 131.279,157.489 130.316 C 158.657 128.167,159.925 125.908,161.440 123.277 C 162.073 122.178,162.915 120.649,163.313 119.880 C 163.711 119.111,164.169 118.422,164.331 118.350 C 164.493 118.277,164.993 117.468,165.443 116.552 C 166.258 114.887,167.262 113.059,169.432 109.291 C 170.065 108.192,170.907 106.663,171.305 105.894 C 171.703 105.125,172.161 104.436,172.323 104.364 C 172.648 104.219,174.226 100.806,174.226 100.249 C 174.226 100.057,168.388 99.900,161.253 99.900 L 148.281 99.900 147.267 101.391 M199.124 100.400 C 198.947 100.674,194.457 109.575,189.148 120.180 L 179.494 139.461 181.955 139.508 C 190.265 139.667,282.517 139.624,282.517 139.461 C 282.516 139.252,280.071 134.461,277.521 129.670 C 276.702 128.132,275.752 126.334,275.410 125.674 C 275.068 125.015,274.674 124.386,274.534 124.276 C 274.395 124.166,274.046 123.496,273.759 122.787 C 272.473 119.608,275.259 119.880,244.009 119.880 C 228.705 119.880,216.184 119.726,216.184 119.537 C 216.184 119.349,218.316 114.947,220.921 109.756 C 223.527 104.565,225.565 100.223,225.450 100.109 C 224.957 99.616,199.449 99.898,199.124 100.400 M109.546 260.198 C 109.163 260.339,108.069 262.003,107.114 263.894 C 106.160 265.785,105.225 267.333,105.037 267.333 C 104.849 267.333,104.695 267.557,104.694 267.832 C 104.693 268.411,101.552 274.628,101.110 274.925 C 100.946 275.035,100.392 276.024,99.877 277.123 C 99.363 278.222,98.873 279.256,98.788 279.421 C 98.704 279.585,117.801 279.720,141.225 279.720 C 164.650 279.720,183.816 279.776,183.816 279.843 C 183.816 279.911,181.580 284.406,178.848 289.833 L 173.880 299.700 187.203 299.700 L 200.526 299.700 210.253 280.220 C 215.603 269.505,219.980 260.559,219.980 260.340 C 219.980 259.894,110.747 259.753,109.546 260.198 " stroke="none" fill="#2a2f2b" fill-rule="evenodd"></path></g></svg>